<svg width="26" height="25" viewBox="0 0 26 25" fill="none" xmlns="http://www.w3.org/2000/svg">
<circle cx="13" cy="12.5" r="12.25" fill="#767676"/>
<path fill-rule="evenodd" clip-rule="evenodd" d="M15.1605 7.74432C16.1329 7.74432 16.9212 6.95602 16.9212 5.98361C16.9212 5.0112 16.1329 4.2229 15.1605 4.2229C14.1881 4.2229 13.3998 5.0112 13.3998 5.98361C13.3998 6.95602 14.1881 7.74432 15.1605 7.74432ZM11.9344 9.39255L10.3804 9.83799L9.97413 11.9542C9.90887 12.2942 9.58042 12.5168 9.24052 12.4515C8.90061 12.3863 8.67796 12.0578 8.74322 11.7179L9.20458 9.31474C9.23441 9.15938 9.31922 9.02852 9.43497 8.93844C9.51412 8.83211 9.6275 8.74994 9.76476 8.7106L12.1171 8.03634C12.2213 8.00646 12.327 8.00483 12.4258 8.0269C12.5343 7.97619 12.6584 7.95596 12.7857 7.97546L14.3662 8.21773C14.6284 8.25791 14.8275 8.45509 14.8827 8.69898L16.2423 10.0586L18.1006 9.20063C18.4149 9.05556 18.7872 9.1927 18.9323 9.50694C19.0774 9.82119 18.9402 10.1935 18.626 10.3386L16.4042 11.3643C16.1835 11.4662 15.9342 11.4289 15.755 11.2888C15.6892 11.2586 15.6275 11.2164 15.5733 11.1621L14.6851 10.2739L14.2373 13.1951C14.2597 13.2062 14.2816 13.2189 14.303 13.233L16.3461 14.5798C16.4525 14.65 16.5305 14.747 16.5772 14.856C16.6946 15.0907 16.6554 15.3837 16.4596 15.5795L14.0129 18.0263C13.7681 18.271 13.3713 18.271 13.1266 18.0263C12.8818 17.7815 12.8818 17.3847 13.1266 17.14L15.0439 15.2226L13.6131 14.2794C13.5192 14.2175 13.4473 14.1345 13.3997 14.0409L12.3081 13.8736L11.4304 17.1492C11.3926 17.29 11.3099 17.4067 11.2017 17.4879C11.1853 17.5091 11.1674 17.5296 11.148 17.549L8.70118 19.9958C8.45644 20.2405 8.05964 20.2405 7.8149 19.9958C7.57016 19.751 7.57016 19.3542 7.8149 19.1095L10.2617 16.6627L10.2636 16.6608L11.1153 13.4825C11.1551 13.3337 11.2453 13.2119 11.3625 13.1303C11.3636 13.1187 11.3651 13.107 11.3669 13.0953L11.9344 9.39255Z" fill="black"/>
</svg>
